<svg xmlns="http://www.w3.org/2000/svg" viewBox="0 0 613.7 168.04"><defs><style>.cls-1,.cls-5{fill:#cf8a00;}.cls-2,.cls-3{fill:#3d5588;}.cls-3{font-size:72px;font-family:CenturyGothic-Bold, Century Gothic;font-weight:700;}.cls-4,.cls-5{letter-spacing:0.13em;}.cls-6{font-size:42px;}.cls-7{letter-spacing:0.12em;}</style></defs><g id="Layer_2" data-name="Layer 2"><g id="Layer_1-2" data-name="Layer 1"><polygon class="cls-1" points="19.7 123.66 19.7 44.38 51.7 56.02 51.7 112.01 19.7 123.66"/><polygon class="cls-2" points="0 0 18.83 40.45 111.11 74.03 92.29 33.59 0 0 0 0"/><polygon class="cls-2" points="0 168.04 18.83 127.59 111.11 94 92.29 134.45 0 168.04 0 168.04"/><polygon class="cls-1" points="19.7 123.66 19.7 44.38 51.7 56.02 51.7 112.01 19.7 123.66"/><polygon class="cls-2" points="0 0 18.83 40.45 111.11 74.03 92.29 33.59 0 0 0 0"/><polygon class="cls-2" points="0 168.04 18.83 127.59 111.11 94 92.29 134.45 0 168.04 0 168.04"/><text class="cls-3" transform="translate(153.2 85.61)"><tspan class="cls-4">DYNAMI</tspan><tspan class="cls-5" x="340.6" y="0">U</tspan><tspan class="cls-1" x="395.7" y="0">M</tspan><tspan class="cls-6"><tspan x="0" y="45.4">Systèmes</tspan><tspan class="cls-7" x="189" y="45.4"> </tspan><tspan x="205.95" y="45.4">Dynamiques</tspan></tspan></text></g></g></svg>